<svg height="503pt" viewBox="-33 0 503 503.90675" width="503pt" xmlns="http://www.w3.org/2000/svg"><path d="m201.5 198.953125v-50.394531h-76.097656v50.394531c-71.261719 19.09375-117.335938 88.046875-107.707032 161.195313 9.628907 73.144531 71.980469 127.824218 145.757813 127.824218s136.125-54.679687 145.757813-127.824218c9.628906-73.148438-36.445313-142.101563-107.707032-161.195313zm0 0" fill="#4370ff"/><path d="m94.140625 340.984375h-32c.0625 55.925781 45.386719 101.25 101.3125 101.308594v-32c-38.261719-.039063-69.269531-31.046875-69.3125-69.308594zm0 0"/><path d="m323.128906 188.65625h32v57.882812h-32zm0 0"/><path d="m241.152344 132.5625h57.882812v32h-57.882812zm0 0"/><path d="m379.226562 132.5625h57.882813v32h-57.882813zm0 0"/><path d="m323.09375 148.558594v-44.71875c0-39.675782-32.164062-71.839844-71.839844-71.839844-39.675781 0-71.839844 32.164062-71.839844 71.839844v28.71875h22.078126c8.839843 0 16.003906 7.164062 16 16v38.5625c65.242187 23.023437 108.894531 84.65625 108.960937 153.839844h-32c-.046875-59.289063-39.863281-111.175782-97.121094-126.5625-6.976562-1.882813-11.832031-8.210938-11.839843-15.4375v-34.402344h-44.078126v34.402344c-.007812 7.226562-4.859374 13.554687-11.839843 15.4375-6.90625 1.875-13.652344 4.308593-20.160157 7.28125v-73.121094c-.003906-8.835938 7.160157-16 16-16h22v-28.71875c0-57.347656 46.488282-103.839844 103.839844-103.839844 57.347656 0 103.839844 46.492188 103.839844 103.839844v44.71875zm0 0"/><path d="m323.253906 372.960938c-14.628906 72.953124-76.808594 126.742187-151.105468 130.714843-74.300782 3.972657-141.859376-42.878906-164.1875-113.855469-22.324219-70.980468 6.253906-148.066406 69.453124-187.339843v39.757812c-42.570312 37.03125-56.640624 97.160157-34.917968 149.234375 21.722656 52.070313 74.351562 84.375 130.617187 80.175782 56.265625-4.203126 103.511719-43.96875 117.261719-98.6875zm0 0"/></svg>